<svg id="Componente_61_3" data-name="Componente 61 – 3" xmlns="http://www.w3.org/2000/svg" width="295" height="194.731" viewBox="0 0 295 194.731">
  <text id="Centro_Estético_Tairy" data-name="Centro Estético Tairy" transform="translate(0 167.022)" fill="#fafafa" font-size="31" font-family="SegoeUI-Bold, Segoe UI" font-weight="700"><tspan x="0" y="0" letter-spacing="-0.01em">C</tspan><tspan y="0">ent</tspan><tspan y="0" letter-spacing="-0.01em">r</tspan><tspan y="0">o E</tspan><tspan y="0" letter-spacing="-0.01em">s</tspan><tspan y="0" letter-spacing="-0.02em">t</tspan><tspan y="0">éti</tspan><tspan y="0" letter-spacing="-0.02em">c</tspan><tspan y="0">o </tspan><tspan y="0" letter-spacing="-0.1em">T</tspan><tspan y="0">airy</tspan></text>
  <text id="Salud_y_Belleza" data-name="Salud y Belleza" transform="translate(85.129 189.481)" fill="#fafafa" stroke="#fafafa" stroke-miterlimit="10" stroke-width="0.25" font-size="19" font-family="SegoeUI, Segoe UI"><tspan x="0" y="0">Salud y Belleza</tspan></text>
  <g id="Grupo_2" data-name="Grupo 2" transform="translate(81.568 0)">
    <path id="Trazado_198" data-name="Trazado 198" d="M218.5,97.551c.252.181-.5,1.2-.984,3.237-.369,1.521-.162,1.89-.492,3.942a29.542,29.542,0,0,1-.744,3.2,25.04,25.04,0,0,1-2.46,5.664,24.646,24.646,0,0,1-4.434,5.425c-2.868,2.635-5.535,3.819-9.115,5.418a36.317,36.317,0,0,1-9.607,3.2,29.624,29.624,0,0,1-9.853-.123c.311-.162.79-.408,1.353-.744a8.7,8.7,0,0,0,3.327-2.706,5.315,5.315,0,0,0,.738-2.589,3.152,3.152,0,0,1-.861.647,3.677,3.677,0,0,1-2.22.3,14.656,14.656,0,0,1-4.247-1.107,14.411,14.411,0,0,1-4.434-3.237,8.8,8.8,0,0,0,1.845.065,10.215,10.215,0,0,0,4.5-1.605,6.531,6.531,0,0,0,2.648-2.091,5.075,5.075,0,0,0,.738-2.033,5.14,5.14,0,0,1-.757.058,6.312,6.312,0,0,1-3.127-1.023,16.331,16.331,0,0,1-2.214-1.482,10.838,10.838,0,0,1-1.6-1.392,9.754,9.754,0,0,1-1.152-1.521l.537-.039a22.728,22.728,0,0,0,3.567-.647,31.074,31.074,0,0,0,4.273-1.476,23.106,23.106,0,0,0,3.554-1.767,8.856,8.856,0,0,0,2.091-1.722,8.028,8.028,0,0,0,.984-1.418c-.246.084-.609.194-1.049.311a22.976,22.976,0,0,1-3.14.55c-1.528.194-2.292.285-3.386.369a58.993,58.993,0,0,1-9.426-.058,29.384,29.384,0,0,1-5.231-.8,18.2,18.2,0,0,1-6.286-2.687,16.094,16.094,0,0,1-3.263-3.127q.5-.175,1.068-.33a16.593,16.593,0,0,1,3.819-.576h0l1.722-.123c.77-.045,1.159-.071,1.541-.058s.537,0,1.211.058c.375,0,.932.045,1.625.065a6.512,6.512,0,0,0-1.728-.557,13.965,13.965,0,0,0-1.664-.123A14.54,14.54,0,0,1,163.8,92.5a16.56,16.56,0,0,1-3.5-.99,18.936,18.936,0,0,1-3.12-1.884,22.589,22.589,0,0,0-2.376-1.56,16.278,16.278,0,0,0-1.728-.822,11.394,11.394,0,0,0,1.644-.33,4.985,4.985,0,0,0,1.644-.647,4.292,4.292,0,0,0,1.392-1.806,6.222,6.222,0,0,0,.576-1.806,5.223,5.223,0,0,1-.719,0,7.645,7.645,0,0,1-3.081-.945,15.291,15.291,0,0,1-3.7-2.337A14.061,14.061,0,0,1,148.62,76.9a4.169,4.169,0,0,0,1.476.311,5.179,5.179,0,0,0,1.541-.246c1.612-.414,1.5-.168,2.958-.557a23.156,23.156,0,0,0,2.525-.861c.563-.214,1.023-.414,1.353-.557a9.016,9.016,0,0,1-.861-.55,10.357,10.357,0,0,1-2.156-2.156,24.859,24.859,0,0,1-3.327-4.991,22.25,22.25,0,0,1-1.295-3.366,24.724,24.724,0,0,1-.738-3.2,9.95,9.95,0,0,0,1.722,1.638,7.121,7.121,0,0,0,1.942,1.152,12.819,12.819,0,0,0,2.958.408,8.9,8.9,0,0,1,2.544.414,4.784,4.784,0,0,1,1.806,1.295,2.272,2.272,0,0,0,.576-.822c.492-1.243-.375-2.589-.822-3.289a7.911,7.911,0,0,0-2.382-2.3,11.128,11.128,0,0,0-2.79-1.392,6.474,6.474,0,0,1,1.068-.33,8.332,8.332,0,0,1,3.282,0,13.64,13.64,0,0,1,3.107.79c1.178.434,1.644.751,1.942,1.23a2.641,2.641,0,0,1,.414,1.068,3.276,3.276,0,0,0,.738-.738,3.884,3.884,0,0,0,.576-2.466,5.082,5.082,0,0,0-.576-2.382,5.309,5.309,0,0,0-1.482-1.638,8.649,8.649,0,0,0-2.628-1.482,22.7,22.7,0,0,1,2.628-.408,23.363,23.363,0,0,1,4.926.084A51.324,51.324,0,0,1,182.7,55.006a54.514,54.514,0,0,1,7.063,3.781c2.369,1.45,3.955,2.589,4.532,3.036,1.47,1.1,2.68,2.123,3.612,2.958-.5-.647-1.295-1.612-2.24-2.771-1.418-1.709-1.9-2.195-2.648-3.081a41.158,41.158,0,0,1-4.124-6.1,58.5,58.5,0,0,1-2.771-5.3,45.963,45.963,0,0,1-4.169-12.546,39.006,39.006,0,0,1-.492-6.072,2.046,2.046,0,0,0,.576,1.211,2.007,2.007,0,0,0,1.107.55,3.438,3.438,0,0,0,1.418-.181,5.289,5.289,0,0,1,2.337-.065,4.409,4.409,0,0,1,1.851,1.049,5.872,5.872,0,0,1,1.172,1.353,7.243,7.243,0,0,1-.065-1.107,8.9,8.9,0,0,1,.492-2.712A14.947,14.947,0,0,1,191.9,26c.9-1.508,1.049-1.534,1.845-2.952.259-.46.544-1.029,1.113-2.156a7.121,7.121,0,0,0,.8-1.942,4.389,4.389,0,0,0-.123-2.1l.744.557c.291.227.8.609,1.23.984a16.184,16.184,0,0,1,1.6,1.6,7.341,7.341,0,0,1,1.353,1.942,6.719,6.719,0,0,1,.5,2.033,9.561,9.561,0,0,1,0,2.033,8.881,8.881,0,0,0,.8-.492,11.264,11.264,0,0,0,3.237-3.45,13.884,13.884,0,0,0,1.787-5.477,45.1,45.1,0,0,0,.557-8.811,22.9,22.9,0,0,1,.058-3c.032-.369.1-1.042.252-1.89a23.478,23.478,0,0,1,.647-2.79A36.9,36.9,0,0,1,209.11,3.7c.2,1.152.194,1.295.369,2.466.246,1.677.453,2.026.984,4.434.188.835.149.751.738,3.819.3,1.573.531,2.732.99,5.049.725,3.716,1.094,5.58,1.23,6.156.835,3.6,1.1,3.625,1.476,5.91.2,1.217.11,1.126.492,5.425.214,2.356.252,2.518.537,5.58s.291,3.418.492,5.587c.207,2.272.466,4.661.984,9.361.647,6.033.7,6.144.822,7.717.285,3.729.317,6.474.33,7.723,0,2.013,0,3.826-.168,6.241a57.539,57.539,0,0,1-.984,7.056c-.57-.382-1.379-.9-2.382-1.476a44.572,44.572,0,0,0-7.768-3.45,60.25,60.25,0,0,0-11.329-3.075,41.578,41.578,0,0,0-10.837-.246,19.421,19.421,0,0,0-3.327.861,16.482,16.482,0,0,0-2.589,1.23c.447-.045,1.081-.1,1.851-.123a28.653,28.653,0,0,1,3.444.123c2.136.188,3.813.337,6.163.738a72.733,72.733,0,0,1,7.438,1.716c8.26,2.441,16.611,7.568,18.126,8.5l.123,1.476a10.287,10.287,0,0,1-.738,1.476,10.889,10.889,0,0,1-2.214,2.589c-2.382,2.11-4.6,3.813-5.095,4.188A39.87,39.87,0,0,1,204,103.792a25.96,25.96,0,0,1-3.237,1.56,8.117,8.117,0,0,0,1.476.246,8.481,8.481,0,0,0,3.366-.492,32.069,32.069,0,0,0,5.749-2.628,28.446,28.446,0,0,0,4.188-2.628C217.273,98.5,218.225,97.351,218.5,97.551Z" transform="translate(-148.62 -0.035)" fill="#fafafa"/>
    <path id="Trazado_199" data-name="Trazado 199" d="M262.166,174.17l3.289,1.638.246,2.466a20.463,20.463,0,0,1-.246,7.386,21.363,21.363,0,0,1-1.728,4.849,22.658,22.658,0,0,1-4.926,6.571,22.01,22.01,0,0,0,2.958-4.849,23.1,23.1,0,0,0,1.9-8.461,26.912,26.912,0,0,0-.848-8.124Z" transform="translate(-187.473 -61.421)" fill="#fafafa"/>
    <path id="Trazado_200" data-name="Trazado 200" d="M240.6.1c-.3.291.324,1.042.952,3.561a27.326,27.326,0,0,1,.531,2.933c.557,3.774,2.667,15.168,4.92,19.246a9.25,9.25,0,0,1,.861,2,14.2,14.2,0,0,1,.5,3.522c.058,1.5-.1,1.832.246,2.382s.8.68,1.716,1.236c.725.447,1.185,1.01,2.337,1.851a21.269,21.269,0,0,1,3.7,4.059,16.01,16.01,0,0,1,2.343,3.7,11.886,11.886,0,0,1,1.107,5.749,15.321,15.321,0,0,1-.168,1.89l-.246,1.068a2.02,2.02,0,0,1,.822,0,2.2,2.2,0,0,1,.906.408l1.56-.9,1.068-1.482v1.4a5.3,5.3,0,0,0,.57-.492,5.613,5.613,0,0,0,.991-1.295,2.162,2.162,0,0,1,.324,1.152,2.059,2.059,0,0,1-.246.984,7.062,7.062,0,0,0,.822-.492,7.477,7.477,0,0,0,1.975-2.078,2.9,2.9,0,0,1,0,.984,3.354,3.354,0,0,1-.99,1.722,4.532,4.532,0,0,1-2.376,1.56,4.467,4.467,0,0,0-1.683.414c-.253.142-.712.414-.7.738,0,.175.149.492,2.052,1.146a23.584,23.584,0,0,0,2.628.744c.162-.214.395-.524.647-.906a20.761,20.761,0,0,0,1.974-3.7c1.016-2.369,1.528-3.554,2.13-5.334a63.855,63.855,0,0,0,1.974-7.251A74.967,74.967,0,0,0,275.141,32a95.666,95.666,0,0,0,.492-10.513,21.27,21.27,0,0,0-2.026,1.172,14.746,14.746,0,0,0-3.036,2.382,11.775,11.775,0,0,0-2.059,3.043,1.942,1.942,0,0,1-.57-.738,2.188,2.188,0,0,1,0-1.482,13.059,13.059,0,0,0,.246-3.774,11.072,11.072,0,0,0-1.56-4.926,13.594,13.594,0,0,0-1.56-2.551c-.647-.822-1-1.016-1.728-2.052a9.665,9.665,0,0,1-1.068-1.89,8.674,8.674,0,0,1-.408-1.23,10.356,10.356,0,0,0-.408,1.152q-.255.96-.414,1.942c-.24.99-.783,1.411-1.56,2.382a15.363,15.363,0,0,0-2.052,3.45c-.117-.324-.278-.777-.492-1.295,0,0-.531-1.334-1.152-2.544a34.71,34.71,0,0,0-4.1-5.995,37.444,37.444,0,0,0-3.528-3.612C245.4,2.436,241.283-.568,240.6.1Z" transform="translate(-181.026 -0.004)" fill="#fafafa"/>
    <path id="Trazado_201" data-name="Trazado 201" d="M278.875,80.847c.311-.46.751-1.088,1.295-1.806a33.274,33.274,0,0,1,5.587-5.587c2.5-1.942,4.532-2.913,8.377-4.758a44.863,44.863,0,0,1,8.7-3.289c1.34-.33,2.479-.531,3.289-.647.149.259.363.647.647,1.107a17.752,17.752,0,0,1,.984,1.942,6.1,6.1,0,0,1,.123,3.237c-.117.647-.544.99-.615,1.845a3.814,3.814,0,0,0,.039.99,6.084,6.084,0,0,0,.732-.33,6.7,6.7,0,0,0,1.9-1.56,32.37,32.37,0,0,1,2.7-2.544,17.477,17.477,0,0,1,2.052-1.482v.906c0,.965-.065,1.7-.084,1.942a16.191,16.191,0,0,1-.162,1.644A9.063,9.063,0,0,1,313.529,75a18.365,18.365,0,0,1-1.884,3.12,6.117,6.117,0,0,0,1.146-.078,8.13,8.13,0,0,0,3.781-2.059,23.992,23.992,0,0,0,3.036-3.036,30.044,30.044,0,0,0,2.214-2.958v1.295c0,1.644,0,2.68-.078,3.619a21.393,21.393,0,0,1-.647,3.884,18.813,18.813,0,0,1-1.56,4.434,16.392,16.392,0,0,1-2.382,3.444,1.748,1.748,0,0,0,.647.576c.712.356,1.47.045,2.958-.492a14.507,14.507,0,0,1,2.589-.9c.751-.091,1.055,0,2.382-.084.647-.045,1.133-.117,1.482-.162l-.822.984a9.9,9.9,0,0,0-.738.9,8.307,8.307,0,0,0-.744,1.236,17.721,17.721,0,0,1-1.638,2.706,7.322,7.322,0,0,1-2.958,2.3,6.836,6.836,0,0,1-1.942.492,2.5,2.5,0,0,0,.246.99,3.554,3.554,0,0,0,2.3,1.638,7.542,7.542,0,0,0,4.926-.246c-.188.265-.466.647-.822,1.068a21.907,21.907,0,0,1-4.188,3.781,27.281,27.281,0,0,1-5.58,3.282,25.287,25.287,0,0,1-5.917,1.722,2.026,2.026,0,0,0,0,.744c.039.188.227.913,1.644,1.722a8.125,8.125,0,0,0,3.036.984,9.989,9.989,0,0,0,3.942-.324,9.358,9.358,0,0,1-.647.984,10.144,10.144,0,0,1-4.68,3.2,53.311,53.311,0,0,1-10.1,2.551,56.931,56.931,0,0,1-11.005.408c-.88-.052-1.612-.117-2.136-.162a6.575,6.575,0,0,0,.408.984,6.72,6.72,0,0,0,1.489,1.871,22.7,22.7,0,0,0,4.014,2.971,14.442,14.442,0,0,0,4.6,1.806,12.9,12.9,0,0,0,3.612.168,5.093,5.093,0,0,1-.453.984,4.823,4.823,0,0,1-2.751,2.214,4.687,4.687,0,0,1-3.036-.162,5.423,5.423,0,0,0,.162,1.068,6.726,6.726,0,0,0,1.722,2.958,13.97,13.97,0,0,0,4.926,3.282,19.1,19.1,0,0,0,4.6,1.295c-.272.214-.647.5-1.152.822a15.647,15.647,0,0,1-3.12,1.644,13.329,13.329,0,0,1-5.826.57,19.883,19.883,0,0,1-2.466-.324c.265.207.7.55,1.23.984a10.481,10.481,0,0,0,1.728,1.295c.744.382.77.142,1.722.576a5.244,5.244,0,0,1,1.806,1.146,4.622,4.622,0,0,0,.906.906,2.835,2.835,0,0,0,.984.408,9.911,9.911,0,0,1-4.842.984,76.939,76.939,0,0,1-9.367-.57,51.239,51.239,0,0,1-7.632-1.644,33.908,33.908,0,0,1-6.875-2.667,29.779,29.779,0,0,1-5.91-4.188v-7.781a24.51,24.51,0,0,1,.919-5.276,11,11,0,0,0,.984.868,12.261,12.261,0,0,0,2.958,1.722,9.9,9.9,0,0,0,3.321.738,9.71,9.71,0,0,0,3.819-.615,6.4,6.4,0,0,1-1.353-.311,7.069,7.069,0,0,1-2.156-1.23,19.176,19.176,0,0,1-3.327-3.237,21.522,21.522,0,0,1-1.541-2.22,10.824,10.824,0,0,0,2.1.35,13.187,13.187,0,0,0,4.266-.55c1.185-.3,2.4-.751,4.842-1.644a20.632,20.632,0,0,0,4.35-2.136,3.949,3.949,0,0,0,1.89-3.282c.084-1.457-.518-2.557-1.476-4.273a9.833,9.833,0,0,0-1.56-2.382c-.453-.421-.855-.647-1.068-1.23a2.693,2.693,0,0,1,0-1.644c.233-.855.608-.887.9-1.806a2.169,2.169,0,0,0,.084-1.638,2.816,2.816,0,0,0-1.4-1.068c-.686-.35-.952-.33-.984-.492s.647-1.385.57-1.845a1.942,1.942,0,0,0-.136-.8,2.441,2.441,0,0,0-.79-.952c-.68-.537-1.075-.363-1.554-.783a3.122,3.122,0,0,1-.427-2.525,10.993,10.993,0,0,1,.939-2.136,11.516,11.516,0,0,0,.822-1.942,3.554,3.554,0,0,0,.084-2.136,2.932,2.932,0,0,0-.757-1.224s-.6-.576-3.127-1.159h0Z" transform="translate(-191.376 -22.839)" fill="#fafafa"/>
  </g>
</svg>
