<svg xmlns="http://www.w3.org/2000/svg" width="238" height="168.978" viewBox="0 0 238 168.978">
  <g id="Grupo_184" data-name="Grupo 184" transform="translate(-838 -38.413)">
    <text id="Centro_Estético_Tairy" data-name="Centro Estético Tairy" transform="translate(838 183.722)" fill="#79b535" font-size="25" font-family="SegoeUI-Bold, Segoe UI" font-weight="700"><tspan x="0" y="0" letter-spacing="-0.01em">C</tspan><tspan y="0">ent</tspan><tspan y="0" letter-spacing="-0.01em">r</tspan><tspan y="0">o E</tspan><tspan y="0" letter-spacing="-0.01em">s</tspan><tspan y="0" letter-spacing="-0.02em">t</tspan><tspan y="0">éti</tspan><tspan y="0" letter-spacing="-0.02em">c</tspan><tspan y="0">o </tspan><tspan y="0" letter-spacing="-0.1em">T</tspan><tspan y="0">airy</tspan></text>
    <text id="Salud_y_Belleza" data-name="Salud y Belleza" transform="translate(908.342 203.141)" fill="#79b535" stroke="#79b535" stroke-miterlimit="10" stroke-width="0.25" font-size="15" font-family="SegoeUI, Segoe UI"><tspan x="0" y="0">Salud y Belleza</tspan></text>
    <g id="Grupo_183" data-name="Grupo 183" transform="translate(899.98 38.413)">
      <path id="Trazado_199" data-name="Trazado 199" d="M261.772,174.17l2.9,1.446.217,2.177a18.065,18.065,0,0,1-.217,6.52,18.857,18.857,0,0,1-1.526,4.28,20,20,0,0,1-4.349,5.8,19.431,19.431,0,0,0,2.612-4.28,20.39,20.39,0,0,0,1.68-7.469,23.756,23.756,0,0,0-.749-7.172Z" transform="translate(-195.835 -74.64)" fill="#79b535"/>
      <g id="Grupo_182" data-name="Grupo 182" transform="translate(0 0)">
        <path id="Trazado_198" data-name="Trazado 198" d="M210.31,86.125c.223.16-.446,1.057-.869,2.857-.326,1.343-.143,1.669-.434,3.48a26.078,26.078,0,0,1-.657,2.823,22.1,22.1,0,0,1-2.172,5,21.756,21.756,0,0,1-3.915,4.789c-2.532,2.326-4.886,3.372-8.046,4.783a32.059,32.059,0,0,1-8.481,2.829,26.15,26.15,0,0,1-8.7-.109c.274-.143.7-.36,1.194-.657a7.68,7.68,0,0,0,2.937-2.389,4.692,4.692,0,0,0,.652-2.286,2.783,2.783,0,0,1-.76.571,3.246,3.246,0,0,1-1.96.269,12.938,12.938,0,0,1-3.749-.977,12.721,12.721,0,0,1-3.915-2.857,7.773,7.773,0,0,0,1.629.057,9.018,9.018,0,0,0,3.972-1.417,5.765,5.765,0,0,0,2.337-1.846,4.48,4.48,0,0,0,.651-1.794,4.538,4.538,0,0,1-.669.051,5.572,5.572,0,0,1-2.76-.9,14.418,14.418,0,0,1-1.954-1.309,9.566,9.566,0,0,1-1.412-1.229,8.613,8.613,0,0,1-1.017-1.343l.474-.034a20.065,20.065,0,0,0,3.149-.571,27.431,27.431,0,0,0,3.772-1.3,20.4,20.4,0,0,0,3.137-1.56,7.818,7.818,0,0,0,1.846-1.52,7.086,7.086,0,0,0,.869-1.252c-.217.074-.537.171-.926.274a20.282,20.282,0,0,1-2.772.486c-1.349.171-2.023.251-2.989.326a52.075,52.075,0,0,1-8.321-.051,25.939,25.939,0,0,1-4.617-.709,16.07,16.07,0,0,1-5.549-2.372,14.207,14.207,0,0,1-2.88-2.76q.446-.154.943-.291a14.648,14.648,0,0,1,3.372-.509h0l1.52-.109c.68-.04,1.023-.063,1.36-.051s.474,0,1.069.051c.331,0,.823.04,1.434.057a5.749,5.749,0,0,0-1.526-.491,12.328,12.328,0,0,0-1.469-.109,12.834,12.834,0,0,1-2.092-.36,14.617,14.617,0,0,1-3.092-.874,16.715,16.715,0,0,1-2.754-1.663,19.943,19.943,0,0,0-2.1-1.377,14.372,14.372,0,0,0-1.526-.726A10.059,10.059,0,0,0,154,76.73a4.4,4.4,0,0,0,1.452-.571,3.789,3.789,0,0,0,1.229-1.594,5.493,5.493,0,0,0,.509-1.594,4.615,4.615,0,0,1-.634,0,6.749,6.749,0,0,1-2.72-.834,13.5,13.5,0,0,1-3.263-2.063,12.41,12.41,0,0,1-1.954-2.177,3.68,3.68,0,0,0,1.3.274,4.572,4.572,0,0,0,1.36-.217c1.423-.366,1.32-.149,2.612-.491a20.442,20.442,0,0,0,2.229-.76c.5-.189.9-.366,1.194-.491a7.959,7.959,0,0,1-.76-.486,9.143,9.143,0,0,1-1.9-1.9,21.945,21.945,0,0,1-2.937-4.406,19.641,19.641,0,0,1-1.143-2.972,21.827,21.827,0,0,1-.651-2.823,8.784,8.784,0,0,0,1.52,1.446,6.286,6.286,0,0,0,1.714,1.017,11.316,11.316,0,0,0,2.612.36,7.856,7.856,0,0,1,2.246.366,4.223,4.223,0,0,1,1.594,1.143,2.006,2.006,0,0,0,.509-.726c.434-1.1-.331-2.286-.726-2.9a6.983,6.983,0,0,0-2.1-2.029,9.823,9.823,0,0,0-2.463-1.229,5.715,5.715,0,0,1,.943-.291,7.355,7.355,0,0,1,2.9,0,12.041,12.041,0,0,1,2.743.7c1.04.383,1.452.663,1.714,1.086a2.332,2.332,0,0,1,.366.943,2.893,2.893,0,0,0,.651-.651,3.429,3.429,0,0,0,.509-2.177,4.486,4.486,0,0,0-.509-2.1,4.686,4.686,0,0,0-1.309-1.446,7.635,7.635,0,0,0-2.32-1.309,20.038,20.038,0,0,1,2.32-.36,20.624,20.624,0,0,1,4.349.074,45.307,45.307,0,0,1,11.527,3.04,48.124,48.124,0,0,1,6.235,3.337c2.092,1.28,3.492,2.286,4,2.68,1.3.971,2.366,1.874,3.189,2.612-.446-.571-1.143-1.423-1.977-2.446-1.252-1.509-1.68-1.937-2.337-2.72a36.332,36.332,0,0,1-3.64-5.383,51.645,51.645,0,0,1-2.446-4.675,40.575,40.575,0,0,1-3.68-11.075,34.435,34.435,0,0,1-.434-5.36,1.806,1.806,0,0,0,.509,1.069,1.772,1.772,0,0,0,.977.486,3.035,3.035,0,0,0,1.252-.16,4.669,4.669,0,0,1,2.063-.057,3.891,3.891,0,0,1,1.634.926,5.183,5.183,0,0,1,1.034,1.194,6.39,6.39,0,0,1-.057-.977,7.852,7.852,0,0,1,.434-2.394,13.194,13.194,0,0,1,1.36-2.663c.794-1.332.926-1.354,1.629-2.606.229-.406.48-.909.983-1.9a6.286,6.286,0,0,0,.7-1.714,3.874,3.874,0,0,0-.109-1.852l.657.491c.257.2.7.537,1.086.869a14.288,14.288,0,0,1,1.412,1.412,6.48,6.48,0,0,1,1.194,1.714,5.931,5.931,0,0,1,.44,1.794,8.44,8.44,0,0,1,0,1.794,7.835,7.835,0,0,0,.7-.434,9.944,9.944,0,0,0,2.857-3.046,12.257,12.257,0,0,0,1.577-4.835,39.814,39.814,0,0,0,.491-7.778,20.215,20.215,0,0,1,.051-2.646c.029-.326.091-.92.223-1.669A20.726,20.726,0,0,1,201.292.09a32.584,32.584,0,0,1,.726,3.189c.177,1.017.171,1.143.326,2.177.217,1.48.4,1.789.869,3.915.166.737.131.663.651,3.372.269,1.389.469,2.412.874,4.457.64,3.28.966,4.926,1.086,5.435.737,3.177.971,3.2,1.3,5.218.177,1.074.1.994.434,4.789.189,2.08.223,2.223.474,4.926s.257,3.017.434,4.932c.183,2.006.411,4.115.869,8.263.571,5.326.617,5.423.726,6.812.251,3.292.28,5.715.291,6.818,0,1.777,0,3.377-.149,5.509a50.8,50.8,0,0,1-.869,6.229c-.5-.337-1.217-.794-2.1-1.3a39.347,39.347,0,0,0-6.858-3.046,53.188,53.188,0,0,0-10-2.714,36.7,36.7,0,0,0-9.566-.217,17.144,17.144,0,0,0-2.937.76,14.549,14.549,0,0,0-2.286,1.086c.394-.04.954-.086,1.634-.109a25.3,25.3,0,0,1,3.04.109c1.886.166,3.366.3,5.44.651a64.205,64.205,0,0,1,6.566,1.514,73.967,73.967,0,0,1,16,7.5l.109,1.3a9.082,9.082,0,0,1-.651,1.3,9.613,9.613,0,0,1-1.954,2.286c-2.1,1.863-4.063,3.366-4.5,3.7a35.192,35.192,0,0,1-3.766,2.68,22.917,22.917,0,0,1-2.857,1.377,7.166,7.166,0,0,0,1.3.217,7.487,7.487,0,0,0,2.972-.434A28.31,28.31,0,0,0,204,90.474a25.11,25.11,0,0,0,3.7-2.32C209.224,86.959,210.064,85.948,210.31,86.125Z" transform="translate(-148.62 -0.041)" fill="#00602e"/>
        <path id="Trazado_200" data-name="Trazado 200" d="M240.588.088c-.269.257.286.92.84,3.143a24.127,24.127,0,0,1,.469,2.589c.491,3.332,2.354,13.39,4.343,16.99a8.17,8.17,0,0,1,.76,1.766,12.532,12.532,0,0,1,.446,3.109c.051,1.326-.086,1.617.217,2.1s.709.6,1.514,1.092c.64.394,1.046.891,2.063,1.634A18.776,18.776,0,0,1,254.5,36.1a14.132,14.132,0,0,1,2.069,3.263,10.492,10.492,0,0,1,.977,5.075A13.524,13.524,0,0,1,257.4,46.1l-.217.943a1.783,1.783,0,0,1,.726,0,1.943,1.943,0,0,1,.8.36l1.377-.794.943-1.309v1.234a4.674,4.674,0,0,0,.5-.434,4.954,4.954,0,0,0,.874-1.143,1.908,1.908,0,0,1,.286,1.017,1.817,1.817,0,0,1-.217.869,6.231,6.231,0,0,0,.726-.434,6.6,6.6,0,0,0,1.743-1.834,2.564,2.564,0,0,1,0,.869,2.961,2.961,0,0,1-.874,1.52,4,4,0,0,1-2.1,1.377,3.943,3.943,0,0,0-1.486.366c-.223.126-.629.366-.617.651,0,.154.131.434,1.812,1.011a20.82,20.82,0,0,0,2.32.657c.143-.189.349-.463.572-.8a18.327,18.327,0,0,0,1.743-3.263c.9-2.092,1.349-3.137,1.88-4.709a56.378,56.378,0,0,0,1.743-6.4,66.181,66.181,0,0,0,1.143-7.606,84.433,84.433,0,0,0,.434-9.281A18.771,18.771,0,0,0,269.727,20a13.019,13.019,0,0,0-2.68,2.1,10.4,10.4,0,0,0-1.817,2.686,1.714,1.714,0,0,1-.5-.651,1.932,1.932,0,0,1,0-1.309,11.529,11.529,0,0,0,.217-3.332,9.775,9.775,0,0,0-1.377-4.349,12,12,0,0,0-1.377-2.252c-.571-.726-.88-.9-1.526-1.812a8.534,8.534,0,0,1-.943-1.669,7.658,7.658,0,0,1-.36-1.086A9.145,9.145,0,0,0,259,9.351q-.225.848-.366,1.714c-.211.874-.691,1.246-1.377,2.1a13.56,13.56,0,0,0-1.812,3.046c-.1-.286-.246-.686-.434-1.143,0,0-.469-1.177-1.017-2.246a30.641,30.641,0,0,0-3.623-5.292,33.061,33.061,0,0,0-3.114-3.189C244.828,2.151,241.193-.5,240.588.088Z" transform="translate(-188.001 -0.004)" fill="#79b535"/>
        <path id="Trazado_201" data-name="Trazado 201" d="M277.819,78.961c.274-.406.663-.96,1.143-1.594a29.376,29.376,0,0,1,4.932-4.932,36.287,36.287,0,0,1,7.395-4.2,39.6,39.6,0,0,1,7.681-2.9c1.183-.291,2.189-.469,2.9-.571.132.229.32.571.571.977a15.669,15.669,0,0,1,.869,1.714,5.383,5.383,0,0,1,.109,2.857c-.1.571-.48.874-.543,1.629a3.366,3.366,0,0,0,.034.874,5.372,5.372,0,0,0,.646-.291,5.915,5.915,0,0,0,1.674-1.377,28.558,28.558,0,0,1,2.383-2.246,15.424,15.424,0,0,1,1.812-1.309v.8c0,.851-.057,1.5-.074,1.714a14.31,14.31,0,0,1-.143,1.452,8,8,0,0,1-.8,2.246,16.212,16.212,0,0,1-1.663,2.754,5.4,5.4,0,0,0,1.012-.069,7.177,7.177,0,0,0,3.337-1.817,21.176,21.176,0,0,0,2.68-2.68,26.52,26.52,0,0,0,1.954-2.612V70.52c0,1.452,0,2.366-.069,3.195a18.889,18.889,0,0,1-.572,3.429,16.6,16.6,0,0,1-1.377,3.915,14.467,14.467,0,0,1-2.1,3.04,1.543,1.543,0,0,0,.571.509c.629.314,1.3.04,2.612-.434a12.807,12.807,0,0,1,2.286-.794c.663-.08.931,0,2.1-.074.571-.04,1-.1,1.309-.143l-.726.869a8.744,8.744,0,0,0-.651.794,7.333,7.333,0,0,0-.657,1.092,15.644,15.644,0,0,1-1.446,2.389,6.463,6.463,0,0,1-2.612,2.029,6.034,6.034,0,0,1-1.714.434,2.206,2.206,0,0,0,.217.874,3.137,3.137,0,0,0,2.029,1.446,6.658,6.658,0,0,0,4.349-.217c-.166.234-.411.571-.726.943a19.34,19.34,0,0,1-3.7,3.337,24.084,24.084,0,0,1-4.926,2.9,22.322,22.322,0,0,1-5.223,1.52,1.789,1.789,0,0,0,0,.657c.034.166.2.806,1.452,1.52a7.172,7.172,0,0,0,2.68.869,8.818,8.818,0,0,0,3.48-.286,8.26,8.26,0,0,1-.571.869,8.955,8.955,0,0,1-4.132,2.823,47.059,47.059,0,0,1-8.915,2.252,50.256,50.256,0,0,1-9.715.36c-.777-.046-1.423-.1-1.886-.143a5.806,5.806,0,0,0,.36.869,5.93,5.93,0,0,0,1.314,1.652,20.041,20.041,0,0,0,3.543,2.623,12.75,12.75,0,0,0,4.063,1.594,11.385,11.385,0,0,0,3.189.149,4.5,4.5,0,0,1-.4.869,4.257,4.257,0,0,1-2.429,1.954,4.137,4.137,0,0,1-2.68-.143,4.787,4.787,0,0,0,.143.943,5.937,5.937,0,0,0,1.52,2.612,12.332,12.332,0,0,0,4.349,2.9,16.865,16.865,0,0,0,4.063,1.143c-.24.189-.571.44-1.017.726a13.812,13.812,0,0,1-2.754,1.452,11.767,11.767,0,0,1-5.143.5,17.55,17.55,0,0,1-2.177-.286c.234.183.617.486,1.086.869a9.252,9.252,0,0,0,1.526,1.143c.657.337.68.126,1.52.509a4.629,4.629,0,0,1,1.594,1.011,4.08,4.08,0,0,0,.8.8,2.5,2.5,0,0,0,.869.36,8.749,8.749,0,0,1-4.275.869,67.918,67.918,0,0,1-8.269-.5,45.231,45.231,0,0,1-6.738-1.452,29.933,29.933,0,0,1-6.069-2.354,26.286,26.286,0,0,1-5.217-3.7V120.73a21.633,21.633,0,0,1,.811-4.657,9.706,9.706,0,0,0,.869.766,10.822,10.822,0,0,0,2.612,1.52,8.737,8.737,0,0,0,2.932.651,8.572,8.572,0,0,0,3.372-.543,5.647,5.647,0,0,1-1.194-.274,6.24,6.24,0,0,1-1.9-1.086,16.923,16.923,0,0,1-2.937-2.857,18.988,18.988,0,0,1-1.36-1.96,9.556,9.556,0,0,0,1.857.309,11.641,11.641,0,0,0,3.766-.486c1.046-.269,2.12-.663,4.275-1.452a18.211,18.211,0,0,0,3.84-1.886,3.486,3.486,0,0,0,1.669-2.9c.074-1.286-.457-2.257-1.3-3.772A8.679,8.679,0,0,0,285.8,100c-.4-.371-.754-.571-.943-1.086a2.377,2.377,0,0,1,0-1.452c.206-.754.537-.783.794-1.594a1.915,1.915,0,0,0,.074-1.446,2.486,2.486,0,0,0-1.234-.943c-.606-.309-.84-.291-.869-.434s.571-1.223.5-1.629a1.714,1.714,0,0,0-.12-.7,2.154,2.154,0,0,0-.7-.84c-.6-.474-.949-.32-1.372-.691a2.756,2.756,0,0,1-.377-2.229,9.7,9.7,0,0,1,.829-1.886,10.166,10.166,0,0,0,.726-1.714,3.138,3.138,0,0,0,.074-1.886,2.589,2.589,0,0,0-.669-1.08,6.632,6.632,0,0,0-2.76-1.023h0Z" transform="translate(-200.579 -27.754)" fill="#79b535"/>
      </g>
    </g>
  </g>
</svg>
