<svg xmlns="http://www.w3.org/2000/svg" width="155" height="154.797" viewBox="0 0 155 154.797">
  <g id="Grupo_204" data-name="Grupo 204" transform="translate(-582 -396.844)">
    <path id="Trazado_198" data-name="Trazado 198" d="M228.362,111.3c.288.207-.576,1.367-1.123,3.693-.421,1.736-.185,2.157-.561,4.5a33.7,33.7,0,0,1-.85,3.649,28.573,28.573,0,0,1-2.807,6.464,28.123,28.123,0,0,1-5.06,6.19c-3.272,3.006-6.316,4.358-10.4,6.183a41.439,41.439,0,0,1-10.962,3.657,33.8,33.8,0,0,1-11.243-.14c.355-.185.9-.465,1.544-.85,1.78-1.056,2.992-1.78,3.8-3.088a6.064,6.064,0,0,0,.842-2.955,3.6,3.6,0,0,1-.982.739,4.2,4.2,0,0,1-2.534.347,16.724,16.724,0,0,1-4.846-1.263,16.443,16.443,0,0,1-5.06-3.693,10.046,10.046,0,0,0,2.105.074,11.657,11.657,0,0,0,5.134-1.832,7.452,7.452,0,0,0,3.021-2.386,5.791,5.791,0,0,0,.842-2.319,5.868,5.868,0,0,1-.864.066,7.2,7.2,0,0,1-3.568-1.167,18.632,18.632,0,0,1-2.526-1.692,12.367,12.367,0,0,1-1.825-1.588,11.13,11.13,0,0,1-1.315-1.736l.613-.044a25.935,25.935,0,0,0,4.07-.739,35.455,35.455,0,0,0,4.875-1.684,26.364,26.364,0,0,0,4.055-2.017,10.105,10.105,0,0,0,2.386-1.965,9.162,9.162,0,0,0,1.123-1.618c-.281.1-.694.222-1.2.355a26.217,26.217,0,0,1-3.583.628c-1.743.222-2.615.325-3.863.421a67.314,67.314,0,0,1-10.755-.066,33.529,33.529,0,0,1-5.969-.916,20.772,20.772,0,0,1-7.173-3.066,18.364,18.364,0,0,1-3.723-3.568q.576-.2,1.219-.377a18.934,18.934,0,0,1,4.358-.657h0l1.965-.14c.879-.052,1.322-.081,1.758-.066s.613,0,1.381.066c.428,0,1.064.052,1.854.074a7.431,7.431,0,0,0-1.972-.635,15.937,15.937,0,0,0-1.9-.14,16.591,16.591,0,0,1-2.7-.465,18.9,18.9,0,0,1-4-1.13,21.606,21.606,0,0,1-3.561-2.15,25.776,25.776,0,0,0-2.711-1.78,18.571,18.571,0,0,0-1.972-.938,13,13,0,0,0,1.876-.377,5.689,5.689,0,0,0,1.876-.739,4.9,4.9,0,0,0,1.588-2.061A7.1,7.1,0,0,0,159.7,94.3a5.96,5.96,0,0,1-.82,0,8.724,8.724,0,0,1-3.516-1.078,17.448,17.448,0,0,1-4.218-2.667,16.046,16.046,0,0,1-2.526-2.814,4.757,4.757,0,0,0,1.684.355,5.909,5.909,0,0,0,1.758-.281c1.839-.473,1.706-.192,3.376-.635a26.425,26.425,0,0,0,2.881-.982c.643-.244,1.167-.473,1.544-.635a10.288,10.288,0,0,1-.982-.628,11.819,11.819,0,0,1-2.46-2.46,28.366,28.366,0,0,1-3.8-5.7,25.39,25.39,0,0,1-1.477-3.841,28.209,28.209,0,0,1-.842-3.649,11.353,11.353,0,0,0,1.965,1.869,8.126,8.126,0,0,0,2.216,1.315,14.627,14.627,0,0,0,3.376.465,10.155,10.155,0,0,1,2.9.473,5.459,5.459,0,0,1,2.061,1.477,2.593,2.593,0,0,0,.657-.938c.561-1.418-.428-2.955-.938-3.753a9.027,9.027,0,0,0-2.718-2.622,12.7,12.7,0,0,0-3.184-1.588,7.386,7.386,0,0,1,1.219-.377,9.507,9.507,0,0,1,3.745,0,15.565,15.565,0,0,1,3.546.9c1.344.495,1.876.857,2.216,1.4a3.014,3.014,0,0,1,.473,1.219,3.738,3.738,0,0,0,.842-.842,4.432,4.432,0,0,0,.657-2.814,5.8,5.8,0,0,0-.657-2.718,6.057,6.057,0,0,0-1.692-1.869,9.869,9.869,0,0,0-3-1.692,25.9,25.9,0,0,1,3-.465,26.659,26.659,0,0,1,5.621.1,58.565,58.565,0,0,1,14.9,3.93,62.2,62.2,0,0,1,8.059,4.314c2.7,1.655,4.513,2.955,5.171,3.464,1.677,1.256,3.058,2.423,4.122,3.376-.576-.739-1.477-1.839-2.556-3.162-1.618-1.95-2.172-2.5-3.021-3.516a46.966,46.966,0,0,1-4.705-6.958,66.76,66.76,0,0,1-3.162-6.043,52.448,52.448,0,0,1-4.757-14.316,44.513,44.513,0,0,1-.561-6.929,2.334,2.334,0,0,0,.657,1.381,2.29,2.29,0,0,0,1.263.628,3.922,3.922,0,0,0,1.618-.207,6.035,6.035,0,0,1,2.667-.074,5.03,5.03,0,0,1,2.113,1.2,6.7,6.7,0,0,1,1.337,1.544,8.263,8.263,0,0,1-.074-1.263,10.149,10.149,0,0,1,.561-3.1A17.057,17.057,0,0,1,198,29.652c1.027-1.721,1.2-1.751,2.105-3.368.3-.524.62-1.175,1.271-2.46a8.125,8.125,0,0,0,.909-2.216,5.009,5.009,0,0,0-.14-2.393l.85.635c.332.259.909.694,1.4,1.123a18.471,18.471,0,0,1,1.825,1.825,8.377,8.377,0,0,1,1.544,2.216,7.667,7.667,0,0,1,.569,2.319,10.907,10.907,0,0,1,0,2.319,10.139,10.139,0,0,0,.909-.561,12.854,12.854,0,0,0,3.693-3.937,15.843,15.843,0,0,0,2.039-6.249,51.463,51.463,0,0,0,.635-10.054,26.134,26.134,0,0,1,.067-3.42c.037-.421.118-1.189.288-2.157A26.8,26.8,0,0,1,216.705.09a42.106,42.106,0,0,1,.938,4.122c.229,1.315.222,1.477.421,2.814.281,1.913.517,2.312,1.123,5.06.214.953.17.857.842,4.358.347,1.8.606,3.117,1.13,5.762.827,4.24,1.248,6.368,1.4,7.025.953,4.107,1.256,4.137,1.684,6.744.229,1.389.126,1.285.561,6.19.244,2.689.288,2.874.613,6.368s.332,3.9.561,6.375c.236,2.593.532,5.319,1.123,10.681.739,6.885.8,7.01.938,8.805.325,4.255.362,7.387.377,8.813,0,2.3,0,4.366-.192,7.121a65.659,65.659,0,0,1-1.123,8.052c-.65-.436-1.573-1.027-2.718-1.684a50.861,50.861,0,0,0-8.864-3.937A68.75,68.75,0,0,0,202.6,89.25s-7.069-1.13-12.366-.281a22.16,22.16,0,0,0-3.8.982,18.807,18.807,0,0,0-2.955,1.4c.51-.052,1.234-.111,2.113-.14a32.7,32.7,0,0,1,3.93.14c2.438.214,4.351.384,7.032.842a82.993,82.993,0,0,1,8.488,1.958c9.426,2.785,18.955,8.635,20.683,9.7l.14,1.684a11.737,11.737,0,0,1-.842,1.684,12.425,12.425,0,0,1-2.526,2.955c-2.718,2.408-5.252,4.351-5.814,4.779a45.5,45.5,0,0,1-4.868,3.464,29.62,29.62,0,0,1-3.693,1.78,9.262,9.262,0,0,0,1.684.281,9.677,9.677,0,0,0,3.841-.561,36.593,36.593,0,0,0,6.56-3,32.46,32.46,0,0,0,4.779-3C226.958,112.379,228.044,111.071,228.362,111.3Z" transform="translate(433.38 396.818)" fill="#fafafa"/>
    <path id="Trazado_199" data-name="Trazado 199" d="M262.641,174.17l3.753,1.869.281,2.814a23.35,23.35,0,0,1-.281,8.428,24.378,24.378,0,0,1-1.972,5.533,25.854,25.854,0,0,1-5.621,7.5,25.116,25.116,0,0,0,3.376-5.533,26.357,26.357,0,0,0,2.172-9.655,30.708,30.708,0,0,0-.968-9.271Z" transform="translate(404.589 351.329)" fill="#fafafa"/>
    <path id="Trazado_200" data-name="Trazado 200" d="M240.608.112c-.347.332.369,1.189,1.086,4.063a31.175,31.175,0,0,1,.606,3.346c.635,4.307,3.043,17.308,5.614,21.961a10.555,10.555,0,0,1,.982,2.283,16.2,16.2,0,0,1,.576,4.018c.066,1.714-.111,2.091.281,2.718s.916.776,1.958,1.411c.827.51,1.352,1.152,2.667,2.113s2.216,2.142,4.218,4.632a18.268,18.268,0,0,1,2.674,4.218,13.562,13.562,0,0,1,1.263,6.56,17.477,17.477,0,0,1-.192,2.157l-.281,1.219a2.3,2.3,0,0,1,.938,0,2.512,2.512,0,0,1,1.034.465l1.78-1.027,1.219-1.692v1.6a6.04,6.04,0,0,0,.65-.561,6.405,6.405,0,0,0,1.13-1.477,2.468,2.468,0,0,1,.369,1.315,2.349,2.349,0,0,1-.281,1.123,8.06,8.06,0,0,0,.938-.561,8.533,8.533,0,0,0,2.253-2.371,3.312,3.312,0,0,1,0,1.123,3.827,3.827,0,0,1-1.13,1.965,5.171,5.171,0,0,1-2.711,1.78,5.1,5.1,0,0,0-1.921.473c-.288.163-.813.473-.8.842,0,.2.17.561,2.342,1.307a26.914,26.914,0,0,0,3,.849c.185-.244.451-.6.739-1.034a23.689,23.689,0,0,0,2.253-4.218c1.16-2.7,1.743-4.055,2.43-6.087a72.863,72.863,0,0,0,2.253-8.273,85.538,85.538,0,0,0,1.477-9.832,109.173,109.173,0,0,0,.561-12,24.268,24.268,0,0,0-2.312,1.337,16.826,16.826,0,0,0-3.464,2.718,13.437,13.437,0,0,0-2.349,3.472,2.216,2.216,0,0,1-.65-.842,2.5,2.5,0,0,1,0-1.692,14.9,14.9,0,0,0,.281-4.307,12.635,12.635,0,0,0-1.78-5.621,15.512,15.512,0,0,0-1.78-2.91c-.739-.938-1.138-1.16-1.972-2.342a11.031,11.031,0,0,1-1.219-2.157,9.9,9.9,0,0,1-.465-1.4,11.821,11.821,0,0,0-.465,1.315q-.291,1.1-.473,2.216c-.273,1.13-.894,1.61-1.78,2.718a17.53,17.53,0,0,0-2.342,3.937c-.133-.369-.318-.886-.561-1.477,0,0-.606-1.522-1.315-2.9a39.606,39.606,0,0,0-4.683-6.84,42.728,42.728,0,0,0-4.026-4.122C246.089,2.779,241.391-.649,240.608.112Z" transform="translate(409.367 396.84)" fill="#fafafa"/>
    <path id="Trazado_201" data-name="Trazado 201" d="M280.145,83.117c.355-.524.857-1.241,1.477-2.061A37.971,37.971,0,0,1,288,74.681c2.851-2.216,5.171-3.324,9.559-5.429a51.192,51.192,0,0,1,9.928-3.753c1.529-.377,2.829-.606,3.753-.739.17.3.414.739.739,1.263a20.258,20.258,0,0,1,1.123,2.216,6.959,6.959,0,0,1,.14,3.693c-.133.739-.621,1.13-.7,2.105a4.349,4.349,0,0,0,.044,1.13,6.94,6.94,0,0,0,.835-.377,7.645,7.645,0,0,0,2.164-1.78,36.937,36.937,0,0,1,3.08-2.9A19.941,19.941,0,0,1,321,68.417v1.034c0,1.1-.074,1.935-.1,2.216a18.472,18.472,0,0,1-.185,1.876,10.341,10.341,0,0,1-1.034,2.9,20.957,20.957,0,0,1-2.15,3.561,6.98,6.98,0,0,0,1.307-.089c.68-.118,1.987-.451,4.314-2.349a27.382,27.382,0,0,0,3.464-3.464,34.282,34.282,0,0,0,2.526-3.376v1.477c0,1.876,0,3.058-.089,4.129a24.414,24.414,0,0,1-.739,4.432,21.466,21.466,0,0,1-1.78,5.06,18.706,18.706,0,0,1-2.718,3.93,2,2,0,0,0,.739.657c.813.406,1.677.052,3.376-.561a16.552,16.552,0,0,1,2.955-1.027c.857-.1,1.2,0,2.718-.1.739-.052,1.293-.133,1.692-.185l-.938,1.123a11.288,11.288,0,0,0-.842,1.027,9.478,9.478,0,0,0-.85,1.411,20.218,20.218,0,0,1-1.869,3.088,8.355,8.355,0,0,1-3.376,2.622,7.8,7.8,0,0,1-2.216.561,2.852,2.852,0,0,0,.281,1.13,4.056,4.056,0,0,0,2.622,1.869,8.606,8.606,0,0,0,5.621-.281c-.214.3-.532.739-.938,1.219a25,25,0,0,1-4.779,4.314,31.129,31.129,0,0,1-6.368,3.745,28.855,28.855,0,0,1-6.752,1.965,2.312,2.312,0,0,0,0,.849c.044.214.259,1.042,1.876,1.965a9.271,9.271,0,0,0,3.464,1.123,11.4,11.4,0,0,0,4.5-.369A10.677,10.677,0,0,1,324,117.03a11.575,11.575,0,0,1-5.341,3.649,60.832,60.832,0,0,1-11.524,2.91,64.961,64.961,0,0,1-12.558.465c-1-.059-1.839-.133-2.438-.185a7.5,7.5,0,0,0,.465,1.123,7.668,7.668,0,0,0,1.7,2.135,25.9,25.9,0,0,0,4.58,3.391,16.479,16.479,0,0,0,5.252,2.061,14.715,14.715,0,0,0,4.122.192,5.813,5.813,0,0,1-.517,1.123,5.5,5.5,0,0,1-3.139,2.526,5.348,5.348,0,0,1-3.464-.185,6.192,6.192,0,0,0,.185,1.219,7.674,7.674,0,0,0,1.965,3.376,15.941,15.941,0,0,0,5.621,3.745,21.8,21.8,0,0,0,5.252,1.477c-.31.244-.739.569-1.315.938a17.854,17.854,0,0,1-3.56,1.876,15.21,15.21,0,0,1-6.648.65,22.691,22.691,0,0,1-2.814-.369c.3.236.8.628,1.4,1.123a11.959,11.959,0,0,0,1.972,1.477c.849.436.879.162,1.965.657a5.984,5.984,0,0,1,2.061,1.307,5.275,5.275,0,0,0,1.034,1.034,3.236,3.236,0,0,0,1.123.465,11.309,11.309,0,0,1-5.525,1.123,87.79,87.79,0,0,1-10.689-.65,58.466,58.466,0,0,1-8.709-1.876,38.69,38.69,0,0,1-7.845-3.043,33.978,33.978,0,0,1-6.744-4.779v-8.879a27.961,27.961,0,0,1,1.049-6.02,12.549,12.549,0,0,0,1.123.99,13.991,13.991,0,0,0,3.376,1.965,11.3,11.3,0,0,0,3.79.842,11.08,11.08,0,0,0,4.358-.7,7.3,7.3,0,0,1-1.544-.355,8.067,8.067,0,0,1-2.46-1.4,21.882,21.882,0,0,1-3.8-3.693,24.55,24.55,0,0,1-1.758-2.534,12.352,12.352,0,0,0,2.4.4,15.047,15.047,0,0,0,4.868-.628c1.352-.347,2.741-.857,5.525-1.876a23.543,23.543,0,0,0,4.964-2.438,4.506,4.506,0,0,0,2.157-3.745c.1-1.662-.591-2.918-1.684-4.875a11.219,11.219,0,0,0-1.78-2.718c-.517-.48-.975-.739-1.219-1.4a3.072,3.072,0,0,1,0-1.876c.266-.975.694-1.012,1.027-2.061a2.474,2.474,0,0,0,.1-1.869,3.213,3.213,0,0,0-1.6-1.219c-.783-.4-1.086-.377-1.123-.561s.739-1.581.65-2.105a2.216,2.216,0,0,0-.155-.909,2.785,2.785,0,0,0-.9-1.086c-.776-.613-1.226-.414-1.773-.894a3.563,3.563,0,0,1-.488-2.881,12.54,12.54,0,0,1,1.071-2.438,13.141,13.141,0,0,0,.938-2.216,4.055,4.055,0,0,0,.1-2.438,3.347,3.347,0,0,0-.864-1.4s-.68-.657-3.568-1.322h0Z" transform="translate(401.697 379.919)" fill="#fafafa"/>
  </g>
</svg>
